<?xml version="1.0" encoding="utf-8"?>
<!-- Mail icon (filled paths using currentColor, suitable for dark/light mode) -->
<svg width="800px" height="800px" viewBox="0 0 24 24" fill="none" xmlns="http://www.w3.org/2000/svg">
  <!-- Envelope border -->
  <path d="M2 5C2 3.89543 2.89543 3 4 3H20C21.1046 3 22 3.89543 22 5V19C22 20.1046 21.1046 21 20 21H4C2.89543 21 2 20.1046 2 19V5ZM4 5V6.234L11.382 12.118C11.7413 12.3989 12.2587 12.3989 12.618 12.118L20 6.234V5H4ZM20 8.401L13.057 13.882C12.4433 14.351 11.5567 14.351 10.943 13.882L4 8.401V19H20V8.401Z" fill="currentColor"/>
</svg>
